<svg width="395" height="300" viewBox="0 0 395 300" fill="none" xmlns="http://www.w3.org/2000/svg">
<rect width="395" height="300" transform="matrix(-1 0 0 1 395 0)" fill="#1C1C1C"/>
<path d="M33.7344 138.943V132.091H63.2401V138.943H52.6548V167H44.3366V138.943H33.7344ZM67.3608 167V140.818H75.696V167H67.3608ZM71.5369 137.767C70.3665 137.767 69.3608 137.381 68.5199 136.608C67.679 135.824 67.2585 134.881 67.2585 133.778C67.2585 132.687 67.679 131.756 68.5199 130.983C69.3608 130.199 70.3665 129.807 71.5369 129.807C72.7188 129.807 73.7244 130.199 74.554 130.983C75.3949 131.756 75.8153 132.687 75.8153 133.778C75.8153 134.881 75.3949 135.824 74.554 136.608C73.7244 137.381 72.7188 137.767 71.5369 137.767ZM93.2401 167.494C90.5014 167.494 88.1378 166.955 86.1491 165.875C84.1719 164.784 82.6491 163.233 81.581 161.222C80.5241 159.199 79.9957 156.795 79.9957 154.011C79.9957 151.307 80.5298 148.943 81.598 146.92C82.6662 144.886 84.1719 143.307 86.1151 142.182C88.0582 141.045 90.348 140.477 92.9844 140.477C94.848 140.477 96.5526 140.767 98.098 141.347C99.6435 141.926 100.979 142.784 102.104 143.92C103.229 145.057 104.104 146.46 104.729 148.131C105.354 149.79 105.666 151.693 105.666 153.841V155.92H82.9105V151.08H97.9105C97.8991 150.193 97.6889 149.403 97.2798 148.71C96.8707 148.017 96.3082 147.477 95.5923 147.091C94.8878 146.693 94.0753 146.494 93.1548 146.494C92.223 146.494 91.3878 146.705 90.6491 147.125C89.9105 147.534 89.3253 148.097 88.8935 148.812C88.4616 149.517 88.2344 150.318 88.2116 151.216V156.142C88.2116 157.21 88.4219 158.148 88.8423 158.955C89.2628 159.75 89.8594 160.369 90.6321 160.812C91.4048 161.256 92.3253 161.477 93.3935 161.477C94.1321 161.477 94.8026 161.375 95.4048 161.17C96.0071 160.966 96.5241 160.665 96.956 160.267C97.3878 159.869 97.7116 159.381 97.9276 158.801L105.581 159.023C105.263 160.739 104.564 162.233 103.484 163.506C102.416 164.767 101.013 165.75 99.2741 166.455C97.5355 167.148 95.5241 167.494 93.2401 167.494ZM118.259 152.068V167H109.923V140.818H117.849V145.625H118.139C118.719 144.023 119.707 142.767 121.105 141.858C122.503 140.938 124.168 140.477 126.099 140.477C127.94 140.477 129.537 140.892 130.889 141.722C132.253 142.54 133.31 143.687 134.06 145.165C134.821 146.631 135.196 148.347 135.185 150.312V167H126.849V151.949C126.861 150.494 126.491 149.358 125.741 148.54C125.003 147.722 123.974 147.312 122.656 147.312C121.781 147.312 121.009 147.506 120.338 147.892C119.679 148.267 119.168 148.807 118.804 149.511C118.452 150.216 118.27 151.068 118.259 152.068ZM149.908 167.375C147.976 167.375 146.22 166.875 144.641 165.875C143.061 164.875 141.8 163.375 140.857 161.375C139.913 159.375 139.442 156.892 139.442 153.926C139.442 150.847 139.93 148.312 140.908 146.324C141.885 144.335 143.163 142.864 144.743 141.909C146.334 140.955 148.044 140.477 149.874 140.477C151.249 140.477 152.425 140.716 153.402 141.193C154.379 141.659 155.186 142.261 155.822 143C156.459 143.739 156.942 144.506 157.271 145.301H157.442V132.091H165.777V167H157.527V162.756H157.271C156.919 163.562 156.419 164.318 155.771 165.023C155.124 165.727 154.311 166.295 153.334 166.727C152.368 167.159 151.226 167.375 149.908 167.375ZM152.805 160.881C153.817 160.881 154.68 160.597 155.396 160.028C156.112 159.449 156.663 158.636 157.05 157.591C157.436 156.545 157.629 155.318 157.629 153.909C157.629 152.477 157.436 151.244 157.05 150.21C156.675 149.176 156.124 148.381 155.396 147.824C154.68 147.267 153.817 146.989 152.805 146.989C151.771 146.989 150.896 147.273 150.18 147.841C149.464 148.409 148.919 149.21 148.544 150.244C148.18 151.278 147.999 152.5 147.999 153.909C147.999 155.318 148.186 156.545 148.561 157.591C148.936 158.636 149.476 159.449 150.18 160.028C150.896 160.597 151.771 160.881 152.805 160.881ZM178.429 167.443C176.759 167.443 175.276 167.165 173.98 166.608C172.696 166.04 171.679 165.187 170.929 164.051C170.19 162.903 169.821 161.466 169.821 159.739C169.821 158.284 170.077 157.057 170.588 156.057C171.099 155.057 171.804 154.244 172.702 153.619C173.599 152.994 174.634 152.523 175.804 152.205C176.974 151.875 178.224 151.653 179.554 151.54C181.043 151.403 182.241 151.261 183.151 151.114C184.06 150.955 184.719 150.733 185.128 150.449C185.548 150.153 185.759 149.739 185.759 149.205V149.119C185.759 148.244 185.457 147.568 184.855 147.091C184.253 146.614 183.44 146.375 182.418 146.375C181.315 146.375 180.429 146.614 179.759 147.091C179.088 147.568 178.662 148.227 178.48 149.068L170.793 148.795C171.02 147.205 171.605 145.784 172.548 144.534C173.503 143.273 174.81 142.284 176.469 141.568C178.139 140.841 180.145 140.477 182.486 140.477C184.156 140.477 185.696 140.676 187.105 141.074C188.514 141.46 189.741 142.028 190.787 142.778C191.832 143.517 192.639 144.426 193.207 145.506C193.787 146.585 194.077 147.818 194.077 149.205V167H186.236V163.352H186.031C185.565 164.239 184.969 164.989 184.241 165.602C183.526 166.216 182.679 166.676 181.702 166.983C180.736 167.29 179.645 167.443 178.429 167.443ZM181.003 161.989C181.901 161.989 182.707 161.807 183.423 161.443C184.151 161.08 184.73 160.58 185.162 159.943C185.594 159.295 185.81 158.545 185.81 157.693V155.205C185.571 155.33 185.281 155.443 184.94 155.545C184.611 155.648 184.247 155.744 183.849 155.835C183.452 155.926 183.043 156.006 182.622 156.074C182.202 156.142 181.798 156.205 181.412 156.261C180.628 156.386 179.957 156.58 179.401 156.841C178.855 157.102 178.435 157.443 178.139 157.864C177.855 158.273 177.713 158.761 177.713 159.33C177.713 160.193 178.02 160.852 178.634 161.307C179.259 161.761 180.048 161.989 181.003 161.989ZM242.435 149.545C242.435 153.386 241.696 156.642 240.219 159.312C238.741 161.983 236.741 164.011 234.219 165.398C231.707 166.784 228.889 167.477 225.764 167.477C222.628 167.477 219.804 166.778 217.293 165.381C214.781 163.983 212.787 161.955 211.31 159.295C209.844 156.625 209.111 153.375 209.111 149.545C209.111 145.705 209.844 142.449 211.31 139.778C212.787 137.108 214.781 135.08 217.293 133.693C219.804 132.307 222.628 131.614 225.764 131.614C228.889 131.614 231.707 132.307 234.219 133.693C236.741 135.08 238.741 137.108 240.219 139.778C241.696 142.449 242.435 145.705 242.435 149.545ZM233.81 149.545C233.81 147.273 233.486 145.352 232.838 143.784C232.202 142.216 231.281 141.028 230.077 140.222C228.884 139.415 227.446 139.011 225.764 139.011C224.094 139.011 222.656 139.415 221.452 140.222C220.247 141.028 219.321 142.216 218.673 143.784C218.037 145.352 217.719 147.273 217.719 149.545C217.719 151.818 218.037 153.739 218.673 155.307C219.321 156.875 220.247 158.062 221.452 158.869C222.656 159.676 224.094 160.08 225.764 160.08C227.446 160.08 228.884 159.676 230.077 158.869C231.281 158.062 232.202 156.875 232.838 155.307C233.486 153.739 233.81 151.818 233.81 149.545ZM255.696 152.068V167H247.361V140.818H255.287V145.625H255.577C256.156 144.023 257.145 142.767 258.543 141.858C259.94 140.938 261.605 140.477 263.537 140.477C265.378 140.477 266.974 140.892 268.327 141.722C269.69 142.54 270.747 143.687 271.497 145.165C272.259 146.631 272.634 148.347 272.622 150.312V167H264.287V151.949C264.298 150.494 263.929 149.358 263.179 148.54C262.44 147.722 261.412 147.312 260.094 147.312C259.219 147.312 258.446 147.506 257.776 147.892C257.116 148.267 256.605 148.807 256.241 149.511C255.889 150.216 255.707 151.068 255.696 152.068ZM286.118 132.091V167H277.783V132.091H286.118ZM291.423 167V140.818H299.759V167H291.423ZM295.599 137.767C294.429 137.767 293.423 137.381 292.582 136.608C291.741 135.824 291.321 134.881 291.321 133.778C291.321 132.687 291.741 131.756 292.582 130.983C293.423 130.199 294.429 129.807 295.599 129.807C296.781 129.807 297.787 130.199 298.616 130.983C299.457 131.756 299.878 132.687 299.878 133.778C299.878 134.881 299.457 135.824 298.616 136.608C297.787 137.381 296.781 137.767 295.599 137.767ZM313.399 152.068V167H305.064V140.818H312.99V145.625H313.28C313.859 144.023 314.848 142.767 316.246 141.858C317.643 140.938 319.308 140.477 321.24 140.477C323.081 140.477 324.678 140.892 326.03 141.722C327.393 142.54 328.45 143.687 329.2 145.165C329.962 146.631 330.337 148.347 330.325 150.312V167H321.99V151.949C322.001 150.494 321.632 149.358 320.882 148.54C320.143 147.722 319.115 147.312 317.797 147.312C316.922 147.312 316.149 147.506 315.479 147.892C314.82 148.267 314.308 148.807 313.945 149.511C313.592 150.216 313.411 151.068 313.399 152.068ZM347.724 167.494C344.986 167.494 342.622 166.955 340.634 165.875C338.656 164.784 337.134 163.233 336.065 161.222C335.009 159.199 334.48 156.795 334.48 154.011C334.48 151.307 335.014 148.943 336.082 146.92C337.151 144.886 338.656 143.307 340.599 142.182C342.543 141.045 344.832 140.477 347.469 140.477C349.332 140.477 351.037 140.767 352.582 141.347C354.128 141.926 355.463 142.784 356.588 143.92C357.713 145.057 358.588 146.46 359.213 148.131C359.838 149.79 360.151 151.693 360.151 153.841V155.92H337.395V151.08H352.395C352.384 150.193 352.173 149.403 351.764 148.71C351.355 148.017 350.793 147.477 350.077 147.091C349.372 146.693 348.56 146.494 347.639 146.494C346.707 146.494 345.872 146.705 345.134 147.125C344.395 147.534 343.81 148.097 343.378 148.812C342.946 149.517 342.719 150.318 342.696 151.216V156.142C342.696 157.21 342.906 158.148 343.327 158.955C343.747 159.75 344.344 160.369 345.116 160.812C345.889 161.256 346.81 161.477 347.878 161.477C348.616 161.477 349.287 161.375 349.889 161.17C350.491 160.966 351.009 160.665 351.44 160.267C351.872 159.869 352.196 159.381 352.412 158.801L360.065 159.023C359.747 160.739 359.048 162.233 357.969 163.506C356.901 164.767 355.497 165.75 353.759 166.455C352.02 167.148 350.009 167.494 347.724 167.494Z" fill="white"/>
</svg>
